<?xml version="1.0" encoding="UTF-8"?><!DOCTYPE svg PUBLIC "-//W3C//DTD SVG 1.1//EN" "http://www.w3.org/Graphics/SVG/1.1/DTD/svg11.dtd"><svg xmlns="http://www.w3.org/2000/svg" xmlns:xlink="http://www.w3.org/1999/xlink"><symbol id="facebook"><path d="M8.853.503 6.854.5C4.608.5 3.157 2.03 3.157 4.397v1.796h-2.01a.319.319 0 0 0-.314.323V9.12c0 .179.141.323.315.323h2.01v6.569c0 .178.14.322.314.322h2.622a.319.319 0 0 0 .314-.322V9.442h2.35a.319.319 0 0 0 .314-.323V6.516a.328.328 0 0 0-.091-.228.31.31 0 0 0-.223-.095h-2.35V4.67c0-.732.17-1.103 1.098-1.103h1.346a.319.319 0 0 0 .315-.324V.826a.319.319 0 0 0-.314-.323Z"/></symbol><symbol id="instagram"><path fill-rule="evenodd" clip-rule="evenodd" d="M.917 8c0-1.472 0-2.208.14-2.816a5.5 5.5 0 0 1 4.127-4.128C5.792.916 6.528.916 8 .916c1.472 0 2.208 0 2.816.14a5.5 5.5 0 0 1 4.127 4.128c.14.608.14 1.344.14 2.816 0 1.472 0 2.208-.14 2.816a5.5 5.5 0 0 1-4.127 4.127c-.608.14-1.344.14-2.816.14-1.472 0-2.208 0-2.816-.14a5.5 5.5 0 0 1-4.127-4.127C.917 10.208.917 9.472.917 8ZM8 4.25a3.75 3.75 0 1 0 0 7.5 3.75 3.75 0 0 0 0-7.5Zm0 6.094A2.347 2.347 0 0 1 5.656 8 2.346 2.346 0 0 1 8 5.656 2.346 2.346 0 0 1 10.344 8 2.347 2.347 0 0 1 8 10.344Zm4.531-6.375a.5.5 0 1 1-1 0 .5.5 0 0 1 1 0Z"/></symbol><symbol id="link-arrow"><path fill-rule="evenodd" clip-rule="evenodd" d="M.793.293a1 1 0 0 1 1.414 0l5 5a1 1 0 0 1 0 1.414l-5 5a1 1 0 0 1-1.414-1.414L5.086 6 .793 1.707a1 1 0 0 1 0-1.414Z"/></symbol><symbol id="telegram"><path d="m6.386 8.572-.248 3.49c.355 0 .508-.153.693-.336l1.664-1.59 3.449 2.525c.632.353 1.078.167 1.249-.582l2.263-10.607h.001c.2-.936-.338-1.301-.954-1.072L1.196 5.494c-.908.353-.894.86-.154 1.088l3.402 1.059 7.902-4.945c.372-.246.71-.11.432.136l-6.392 5.74Z"/></symbol></svg>